<svg xmlns="http://www.w3.org/2000/svg" viewBox="0 0 399.7 415.05"><g id="Layer_2" data-name="Layer 2"><g id="Layer_1-2" data-name="Layer 1"><path d="M378.45,246.52c-25-6.4-65,12.5-59.9-11.2,5-23,39.9-2.3,63.7-3.89,19.4.3,24.7-41.6,5.2-41.31-24.7-.1-61.4,19.4-64.8-3.8-2.8-19.2,40-11.3,63.1-17.39,18.9-4.81,11.4-32.31-7.8-29-12.2,2.1-30.2,20.5-38.6,9.8-9.6-12.2,25.4-24.3,29.9-31.2,10.6-16.3,1.7-36-15-26-23.4,16-59.1,71.5-69,54.8-9-15.2,39-43.9,62.7-63.9,14-13.6-3.7-29.8-21.2-21.2s-25.8,41.4-38.6,28.5c-16.3-16.6,13.5-31.2,20.5-43.4,9.7-16.9-14.7-30.9-26-15-28.3,40-31.4,78.1-46.7,67.1-16-11.5,29.3-48.8,35.3-72.81,5.3-18.7-24.2-26.7-29-7.79-4.9,17.1-1,39.09-20.2,35.5-16.9-3.1,2.7-19.4,2.6-39.71.3-19.5-30.3-19.5-30,0-1.3,22.5,14.3,55.81-4.1,55.31-14.9-.31-16.3-32.8-23-52.6-4.8-18.9-34.8-10.8-29,7.8,9.4,30.4,55.6,90.1,35.8,99.69-25.8,12.4-28.8-62.1-46.6-95.8-9.5-17-36-1.7-26,15,9.6,21.8,37.8,58,28.9,64.8-19.1,14.5-31.1-31.8-49.1-50.1-13.4-14.1-35.1,7.6-21.1,21.1,16.3,16.7,52.3,36.2,46.3,48C95,151,72,107.92,48.85,95.52c-16.7-10-32,16.5-15,26,12.9,7.4,28.9,6.7,24.2,17.6-4.6,10.7-14.8-1.8-29.4-5.7-18.7-5.3-26.7,24.2-7.8,29,25,6.4,102-4.4,96.9,19.4-5,23-78.1-.3-101.9,1.3-19.4-.3-21.9,35.5-2.4,36.9,70,5,79.3-9.1,80.4,5.8s-49.1,2-72.2,20.2c-15.3,12-11.4,32.3,7.8,29,12.2-2.1,30.2-20.5,38.6-9.79,9.6,12.2-15.1,21-29.9,31.2-16,11-1.7,36,15,26,23.4-16,55.4-59.4,65.3-42.7,9,15.2-35.3,31.89-59,51.79-14,13.6,3.7,29.8,21.2,21.21S102.55,316,115.35,329c16.3,16.6-8.8,27.8-16.6,38.71-11.3,15.89,14.7,30.89,26,15,28.3-40,16.1-85.31,43.8-80.5,26.9,4.7-21.6,58.39-26.8,88.89-3.3,19.21,18.7,24,23.4,5.11,4.9-17.11,1-39.11,20.2-35.5,16.9,3.1-2.7,19.39-2.6,39.7-.3,19.5,30.3,19.5,30,0,1.3-22.5-14.3-55.8,4.1-55.3,14.9.3,16.3,32.8,23,52.6,4.8,18.9,34.8,10.8,29-7.8-9.4-30.4-51.1-74.2-31.3-83.7,25.8-12.4,24.2,46.2,42.1,79.9,9.5,17,36,1.7,26-15-9.6-21.8-37.8-58-28.9-64.8,19.1-14.5,31.1,31.79,49.1,50.1,13.6,14,32.4-5.3,21.2-21.2-48.8-69.4-88.6-63.71-73.4-85.8,14.7-21.5,61.9,57.8,85,70.19,16.7,10,32-16.5,15-26-12.9-7.39-28.9-6.7-24.2-17.6,4.6-10.7,14.8,1.8,29.4,5.71C397.45,286.72,397.35,251.32,378.45,246.52Z"/></g></g></svg>