<svg xmlns="http://www.w3.org/2000/svg" viewBox="0 0 399.9 415.25"><g id="Layer_2" data-name="Layer 2"><g id="Layer_1-2" data-name="Layer 1"><path d="M378.65,246.82c-25-6.39-65,12.5-59.9-11.2,5-23,39.9-2.3,63.7-3.89,19.4.3,24.7-41.6,5.2-41.3-24.7-.11-50.7,19.6-54.1-3.61-2.8-19.2,29.3-11.5,52.4-17.7,18.9-4.8,11.4-32.3-7.8-29-12.2,2.11-30.2,20.5-38.6,9.81-9.6-12.2,25.4-24.31,29.9-31.2,10.6-16.3,1.7-36-15-26-23.4,16-64,75.5-73.8,58.8-9-15.2,43.8-47.9,67.5-67.9,14-13.6-3.7-29.8-21.2-21.2s-21.9,36.69-34.7,23.69c-16.3-16.59,9.6-26.5,16.6-38.7,9.7-16.89-14.7-30.9-26-15-28.3,40-25.9,72.4-41.2,61.4-16-11.5,23.9-43.2,29.8-67.2,5.3-18.7-24.2-26.7-29-7.79-4.9,17.1-1,39.09-20.2,35.5-16.9-3.1,2.7-19.4,2.6-39.71.3-19.5-30.3-19.5-30,0-1.3,22.5,14.3,55.81-4.1,55.31-14.9-.31-16.3-32.8-23-52.6-4.8-18.9-34.8-10.8-29,7.8,9.4,30.4,62.3,106.3,42.5,115.8-25.8,12.39-35.4-78.31-53.3-112-9.5-17-36-1.7-26,15,9.6,21.8,37.8,58,28.9,64.8-19.1,14.5-31.1-31.8-49.1-50.1-13.6-14-35.2,7.7-21.2,21.2,16.3,16.7,52.3,36.2,46.3,48-11.8,23.2-34.8-19.9-57.9-32.3-16.7-10-32,16.5-15,26,12.9,7.4,28.9,6.7,24.2,17.6-4.6,10.7-14.8-1.8-29.4-5.7-18.7-5.3-26.7,24.2-7.8,29,25,6.4,40.9-7.9,35.8,15.8-5,23-17.1,3.3-40.9,4.9-19.4-.3-21.9,37.2-2.4,36.9,24.7.1,62-20,65.7,3.2,2.9,18.1-34.5,16.7-57.6,22.89-18.9,4.81-11,34.1,7.8,29,108.7-29.4,107.7-96.4,131.7-67.5,25.1,30.2-108.2,78.7-123,88.9-16,11-1.7,36,15,26,23.4-16,55.4-59.4,65.3-42.71,9,15.21-35.3,31.9-59,51.8-14,13.6,3.7,29.8,21.2,21.2s21.9-36.7,34.7-23.7c16.3,16.6-8.8,27.8-16.6,38.7-11.3,15.9,14.7,30.9,26,15,28.3-40,27-107.8,54.6-103,26.9,4.71-32.5,81-37.7,111.5-3.3,19.21,18.7,24,23.4,5.11,4.9-17.11,1-39.11,20.2-35.5,16.9,3.1-2.7,19.39-2.6,39.7-.3,19.5,30.3,19.5,30,0,1.3-22.5-14.3-55.8,4.1-55.3,14.9.3,16.3,32.8,23,52.6,4.8,18.9,34.8,10.8,29-7.8-9.4-30.4-51.1-74.2-31.3-83.7,25.8-12.4,24.2,46.2,42.1,79.9,9.5,17,36,1.7,26-15-9.6-21.8-37.8-58-28.9-64.8,19.1-14.5,31.1,31.8,49.1,50.1,13.6,14,35.2-7.7,21.2-21.2-16.3-16.7-52.3-36.2-46.3-48,11.8-23.2,34.8,19.9,57.9,32.3,16.7,10,32-16.5,15-26-12.9-7.4-28.9-6.7-24.2-17.6,4.6-10.7,14.8,1.8,29.4,5.7C397.65,287,397.55,251.62,378.65,246.82Z"/></g></g></svg>