<svg xmlns="http://www.w3.org/2000/svg" viewBox="0 0 399.8 415.35"><g id="Layer_2" data-name="Layer 2"><g id="Layer_1-2" data-name="Layer 1"><path d="M378.55,246.72c-25-6.39-65,12.5-59.9-11.2,5-23,39.9-2.3,63.7-3.89,19.4.3,24.7-41.3,5.2-41.3-103.2,0-131,37-135.4,7.5-4.5-30.4,110.5-22.61,133.7-28.81,18.9-4.8,11.4-32.3-7.8-29-12.2,2.11-30.2,20.5-38.6,9.81-9.6-12.2,25.4-24.31,29.9-31.2,10.6-16.3,1.7-36-15-26-23.4,16-64,75.5-73.8,58.8-9-15.2,43.8-47.9,67.5-67.9,14-13.6-3.7-29.8-21.2-21.2S305,99,292.15,86c-16.3-16.59,9.6-26.5,16.6-38.7,9.7-16.89-14.7-30.9-26-15-28.3,40-25.9,72.4-41.2,61.4-16-11.5,23.9-43.2,29.8-67.2,5.3-18.7-24.2-26.7-29-7.79-4.9,17.1-2.3,29.6-16.2,26.79-10.2-2.09-1.4-10.59-1.4-30.9.3-19.5-30.3-19.5-30,0-1.3,22.5,23.5,82.1,5.1,81.7-24.5-.5-25.5-59.2-32.2-78.9-4.8-18.9-34.8-10.8-29,7.8,9.4,30.4,58,93.3,38.2,102.9-25.8,12.4-31.1-65.3-49-99-9.5-17-36-1.7-26,15,9.6,21.8,37.8,58,28.9,64.8-19.1,14.5-31.1-31.8-49.1-50.1-13.6-14-35.2,7.7-21.2,21.2,16.3,16.7,52.3,36.2,46.3,48-11.8,23.2-34.8-19.9-57.9-32.3-16.7-10-32,16.5-15,26,12.9,7.4,28.9,6.7,24.2,17.61-4.6,10.69-14.8-1.81-29.4-5.7-18.7-5.3-26.7,24.2-7.8,29,25,6.39,102-4.4,96.9,19.39-5,23-78.1-.3-101.9,1.31-19.4-.31-21.9,37.19-2.4,36.89,24.7.11,65.3-17.3,69,5.8,2.9,18.11-37.8,14.11-60.9,20.2-18.9,4.8-11.4,32.3,7.8,29,12.2-2.1,30.2-20.5,38.6-9.79,9.6,12.2-15.1,21-29.9,31.2-16,11-1.7,36,15,26,23.4-16,55.4-59.4,65.3-42.7,9,15.2-35.3,31.9-59,51.79-14,13.61,3.7,29.8,21.2,21.21s21.9-36.71,34.7-23.71c16.3,16.61-8.8,27.8-16.6,38.71-11.3,15.9,14.7,30.9,26,15,28.3-40,27-107.81,54.6-103,26.9,4.7-32.5,81-37.7,111.5-3.3,19.2,18.7,24,23.4,5.1,4.9-17.1,1-39.1,20.2-35.5,16.9,3.1-2.7,19.4-2.6,39.7-.3,19.5,30.3,19.5,30,0,1.3-22.5-14.3-55.8,4.1-55.3,14.9.3,16.3,32.8,23,52.6,4.8,18.9,34.8,10.8,29-7.8-9.4-30.4-51.1-74.2-31.3-83.7,25.8-12.4,24.2,46.2,42.1,79.9,9.5,17,36,1.7,26-15-9.6-21.8-37.8-58-28.9-64.8,19.1-14.5,31.1,31.8,49.1,50.1,13.6,14,33.7-6.2,21.2-21.2-51.1-61.7-91.4-56.4-77.5-75.6,15.3-21.1,66,47.5,89.1,59.9,16.7,10,32-16.5,15-26-12.9-7.4-28.9-6.7-24.2-17.6,4.6-10.7,14.8,1.8,29.4,5.7C397.55,286.92,397.45,251.52,378.55,246.72Z"/></g></g></svg>