<svg xmlns="http://www.w3.org/2000/svg" viewBox="0 0 1196.75 795.36"><g id="Layer_2" data-name="Layer 2"><g id="Layer_1-2" data-name="Layer 1"><path d="M1184.33,606.28c-1.14-1.19-2.34-2.32-3.56-3.42-7.14-6.44-9.88-13.78-6.84-23.53,6.38-20.41,7-41.6,7.72-62.81.58-17.22-2.61-33.69-6.78-50.19-2.34-9.29-3.61-18.89.63-28.06a42.45,42.45,0,0,1,6.12-8.9c4.27-5.17,8-10.47,9.33-17.28.62-3.16,2.47-6.06,3.61-9.14.78-2.12,1.83-4.32,1.85-6.5.15-17.23.06-34.46.1-51.7,0-6.4-3.88-10.76-7.93-14.9a70.88,70.88,0,0,0-9.16-7.65c-4.6-3.32-5.24-8-3.23-12.39a118.42,118.42,0,0,1,10.17-17.39c5.44-8,10.55-15.53,10.32-26.09q-.86-37.68,0-75.4c.19-8.12-3.76-12.21-9.69-15.69a91.25,91.25,0,0,0-10.22-5.14c-6-2.58-8.57-7.46-8.17-13.51.56-8.56,1.63-17.11,3-25.59,1.6-10.18.53-20.14-1.68-30-2.24-10-2.2-19.53,3.41-28.76A41.8,41.8,0,0,0,1179.54,49c-.18-6.37.66-12.85-.2-19.1-1.3-9.37-8.58-12.67-17.1-8.62-2.39,1.13-4.89,2-7.36,3-3.67,1.39-6.75.47-9.34-2.45-1.86-2.1-3.78-4.15-5.77-6.13-11.62-11.53-22.34-5.38-28,6.08a9.67,9.67,0,0,0-1,2.26c-1.93,9.32-7.08,16-14.55,22.12-8.85,7.19-7.65,17.58-5,27.61,1.42,5.39,3,10.78,3.91,16.26.35,2.1-.56,4.58-1.42,6.67-2.36,5.79-6,7.4-11.18,3.88-9.11-6.25-19-9.49-29.88-10.87-2.38-.3-4.42-2.71-6.79-3.79-2.75-1.26-5.63-2.81-8.54-3-6.5-.46-13.06-.26-19.6-.13-7.54.14-15.11.12-22.59.88-4.47.46-5.28-.79-3.4-4.35,2.54-4.8,5.56-9.34,8.06-14.15,4.66-9,6.45-18.34,2.14-28-5.19-11.54-17.84-12.94-26.26-3.54a50.4,50.4,0,0,1-13.11,10.88C949.11,51.8,946,69.15,947,80.7c.61,6.91,2.6,12.06,9.87,14.11,5.94,1.66,11.81,2.31,17.91.88,8.69-2,9.23-1.76,6.74,6.86-2.74,9.46-6.49,18.63-9.81,27.92a2.65,2.65,0,0,1-.41.9c-3.2,3.46-5.73,8.59-11.35,7.65-5.19-.86-4.89-6-5.54-10-1.63-9.77-3.2-19.55-4.55-29.35-.74-5.4-2.17-10-7.11-13.31-6.59-4.4-12.7-9.5-19.15-14.11-1.82-1.31-4.1-2.69-6.21-2.77-10-.38-20.17-1.86-29.89,2.16-1.52.63-3.16,1-4.7,1.52-13.74,5.07-17.31-3.55-18-13.05-.53-7.77-.11-15.64-1.11-23.34-2.71-20.85-15.68-28.9-33-32.53-2.89-.61-5.93-.51-8.88-.85-6-.7-12.09-1.37-18.1-2.26a18.38,18.38,0,0,0-14.91,3.73c-11,8.76-23.65,10.27-37,7.69-13.57-2.62-29.62,2-35.07,19.33-1.88,6-4,11.88-5.91,17.85s-4.09,6.69-8.72,2.71c-8.22-7.08-15-8.73-24.87-1.6-1.31.94-4.33.9-5.76,0-5.32-3.29-10.47-6.13-17.11-4.1-1.13.35-4-1.14-4.13-2.1-.53-3.06-.82-6.47.06-9.37.64-2.1,3.38-3.51,5-5.39,7.89-9.14,8.73-19.18,3.6-29.91h-22c-1,6-3.37,12.11-2.59,17.82.95,6.89-1.66,10-6.73,13.46-9.35,6.39-10.88,17.47-8.14,28.54.92,3.73,3.09,7.31,5.31,10.53,3.74,5.44,9.82,6.33,15.24,2.72,1.24-.83,2.53-1.6,3.69-2.53,2.6-2.09,4.68-1.18,6.31,1.18,3.88,5.61,8.58,9.34,15.93,9.46,2,0,5.72,3.11,5.53,4.26A12.16,12.16,0,0,1,667,92.88c-2,1.34-5.53,1.43-8.06.79-9.12-2.3-17.08-.93-23.66,6.08-3.24,3.46-6.56,3.7-10.62,1.28-8.69-5.19-18.61-6.22-28.25-8.5-7.8-1.85-15.24-5.89-22.31-9.89-6.08-3.43-5.78-9.91-4.89-16,1.16-8,3.75-16,3.54-23.88-.42-16.71-5.13-32-20.18-42-.24-.16-.34-.53-.51-.8H517c-10.36,7.71-17.65,18-24.79,28.56-5.36,7.89-13.95,9-22.67,10s-17.57,2.37-26.31,3.8c-9.73,1.6-18.37-.27-25.41-7.48-10-10.26-20.88-19.26-34-25.42S357.94.85,344.52,7.87a8.15,8.15,0,0,1-1.84.74C332.41,10.89,324.28,15.53,320,26c-2,4.92-8.19,6.38-13.51,5a32.78,32.78,0,0,1-18.52-12.37C282.88,12,276.84,6.18,271.23,0h-25c-4.06,3.27-8,6.76-12.26,9.69a8.06,8.06,0,0,1-6.07.91c-5.46-1.68-9.7-.22-13.26,3.89-2.69,3.11-5.89,4.46-9.61,2.32-12.68-7.27-25.2-6.17-38-.23-8.28,3.84-12.91,2.39-18.51-4.89-2.9-3.76-5.46-7.78-8.17-11.69h-22c-2.64,7-5.43,14-7.87,21.09s-4.17,14.24-6.8,21.14c-2.15,5.63-4.59,6-9.41,2.27-4.15-3.17-8.55-6-14-3.76-6,2.52-8.54,7.66-8.82,13.88a91.78,91.78,0,0,0,.33,12.07,15,15,0,0,1-4.08,11.86,111.85,111.85,0,0,0-23.88,44.11c-3.2,11.17-.66,22.32,3.28,33,3.38,9.15,2.93,17.67-2,26.09-6.15,10.48-8,22.22-9.81,34-.58,3.66-1.74,7.86-4.1,10.49-13.84,15.48-19.17,34.33-23,54C6.39,289,4,297.57,5.41,306.66c2.21,14.13,9,24.74,22.77,30,5.72,2.18,9.39,5.88,10.18,12.16a23.22,23.22,0,0,0,1.15,4.79c3.25,9.18,11.32,12.76,19.61,5.65,3.12-2.68,6.18-4.52,10.19-1.63,5.21,3.75,7.81,9.31,6,13.76-1,2.59-2.51,5-3.68,7.55-4.32,9.34-2.94,18.58.45,27.83,2.12,5.78,1,9.3-4.43,12.45-4.27,2.48-9,4.22-13.34,6.53-8.3,4.35-16.44,9-24.77,13.27-4.06,2.09-8.27,4.32-12.67,5.22C8.2,446,3.16,451.27,1,459.39c-2.25,8.33-.62,16.13,5.3,22.58a34,34,0,0,0,7.47,5.6c6.33,3.87,11.55,9,12.75,16.33,1.71,10.55,2.53,21.27,3.27,32,.42,6.15-3.63,10.43-7.77,14.38-9.07,8.66-13.55,19-11.55,31.64,2.46,15.52,10.87,22.83,26.44,23.38,9.16.32,17.63,13.3,14.1,22-4.25,10.52-8.9,20.88-13.29,31.34-1.23,2.92-3.15,3.64-5.94,2.48a33.56,33.56,0,0,1-3.58-1.71c-7.59-4.25-14.31-3.34-17.33,4.49-5.62,14.54-9.9,29.73-3.67,45.35,5,12.62,18.6,16.81,27.35,7.84,4.26-4.35,6.3-11,8.89-16.8,1.18-2.64,1.22-5.79,1.81-8.69,1.1-5.35,3.28-6.77,8.67-5.7,10.9,2.16,22.82-6.34,26.52-18.39,2.77-9,2.52-18.18.68-27-1.28-6.14.83-10.35,4.29-14.42,3.74-4.39,7.87-8.46,11.93-12.57a8.37,8.37,0,0,1,3.33-2c7.45-2.34,17.57,1.88,20.35,9,4.19,10.75,8.2,21.6,11.52,32.64,1.4,4.62,1.41,9.88,1,14.77-1,13.42,1.55,26.39,4.13,39.39,1.09,5.51,1.94,11.06,3.12,16.54,2.71,12.55,12.52,19,22.32,25.28a68.88,68.88,0,0,0,7,3.73c4.68,2.3,7.66,5.87,9.84,10.68,3.46,7.6,7.51,15,11.61,22.26,2.1,3.71,5.79,3.5,8.52-.06,6.2-8.09,6.37-8.39,14.84-3.51,11.93,6.87,19.88,3.54,28.67-6a10.79,10.79,0,0,1,6-3.34c3.73-.49,5.05-2.39,4.67-5.65a176.39,176.39,0,0,0-2.71-18.93c-1.7-7.54-4.18-14.9-6.33-22.33-.64-2.21-1.46-4.37-1.9-6.61-1.89-9.44-6.87-16.88-13.68-23.61-7.84-7.75-12.62-17-9.18-28.53a22.22,22.22,0,0,1,3.45-6.52c5.27-7.26,10.67-14.43,16.11-21.56,3.27-4.29,7.58-5.67,11.74-2.67,13,9.38,25.65,19.38,29.58,36,1.31,5.54-.05,11.71-.11,17.6-.11,10.27-.37,20.54-.14,30.8.11,5.11-1.28,8.8-5.72,11.7-14.71,9.61-17.41,25.9-6.77,39.41,7,8.9,19.28,7.62,24.66-2.43,3.63-6.77,4.7-14.08,4.76-21.53,0-5.24,3.11-7.44,7.33-8.54,9.71-2.52,19.43-5.12,29.28-6.94,3-.55,6.51,1.13,9.6,2.29,1.41.52,2.46,2.17,3.51,3.44,7.26,8.77,16,10.8,26.57,6.51a176.51,176.51,0,0,1,16.91-5.5c7.45-2.19,11-.38,14.24,6.66,2.2,4.79,4.12,9.8,7,14.14,5.11,7.64,12.19,9.85,20.87,6.73,5.61-2,10.75-1.42,16.44-.15,6.63,1.49,13.64,1.19,20.45,1.91a93.38,93.38,0,0,1,14.57,2.25c8.1,2.19,15.81,1.68,22.93-2.58,7.31-4.38,14-4,21.3.16,6.12,3.43,13,5.53,19.4,8.42,5.55,2.5,11.51,4.56,16.34,8.1,10.39,7.61,21.58,8.36,33.55,6.09,5.64-1.07,11.31-2.74,17-2.71,3.55,0,7.09,2.66,10.64,4.12,2.27.94,4.49,2.42,6.84,2.67,4.11.44,8.38-.34,12.46.24,5.46.78,7.5-2.19,8.56-6.54,1.13-4.62,2.07-9.3,2.92-14,.75-4.16,3.59-6.07,7.3-6.23a20,20,0,0,0,14.46-6.69c3.77-4.11,8.45-4.69,12.66-2.33,15.19,8.56,28.28,3.92,41.76-4.5,9.64-6,20.51-10.77,32.25-9.54,8.42.87,16.46.92,24.24-2.23,25.23-10.22,44.47-26.05,50.15-54.39a89.83,89.83,0,0,1,3.3-11.91c1.81-5.19,3.87-6.33,8.63-3.94,11.6,5.82,19,.15,23.78-9.35,2.21-4.41,4.37-8.68,10.21-9.72s9.77,2.2,8.83,8.14c-1.89,11.9-4.82,23.77-5.2,35.72-.52,16.47,3.82,31.74,19.17,41.16,7.17,4.39,14.39,9.09,22.21,11.93,10,3.65,16.08,11.26,22.58,18.72,2.81,3.23,5.47,6.72,8.75,9.4,8.86,7.24,18.93,6.14,26.34-2.46a35.72,35.72,0,0,0,1.51-44.11c-3.35-4.49-7.07-8.83-9.64-13.76-3.46-6.67-.32-13.66.77-20.39,3.44-21.25-1.07-39.36-19.14-52.83-8.39-6.25-8.64-8.84-4.44-18.63,3.32-7.73,6.59-15.52,9.19-23.51,2.22-6.8,6.29-11.62,12.56-14.57,13.37-6.28,19.56-17.67,22.85-31.26a124.84,124.84,0,0,1,3.38-12.91c.52-1.45,2.79-3.21,4.18-3.14s3.6,2,3.91,3.52c1.56,7.37,4.67,13.27,10.84,18.19,3.3,2.63,4.67,7.86,6.53,12.08a88.42,88.42,0,0,0,18,27.1c7.46,7.56,6.19,15.83-3,21.21-2.83,1.65-5.11.7-7.63-1.3-6.78-5.38-12.86-5-17,.48-4.84,6.54-3.1,18.34,3.46,23.49,9,7.08,10.27,9.9,6.39,21.35-3.38,10-7.84,19.61-11.81,29.4-4.62,11.37-8.74,23-8.89,35.35-.19,14.63,3.92,28.22,14.77,38.78,6.84,6.66,15.11,7.57,24,4.28,9.32-3.45,10.58-2.56,16.06,5.62s12.56,14.8,23.89,14.3c7.3-.32,12.23-3.88,15.65-9.66,3.11-5.24,5.47-10.91,8.12-16.42,3.16-6.59,7-8.57,14.33-7.28,5.84,1,11.66,2.77,17.52,2.92,7.12.19,14.15-1.67,19.78-6.42,7.82-6.6,15.71-13.2,22.93-20.43,5.93-6,9.46-13.2,9.36-22.19-.28-26.47-.64-53,.14-79.4C1197.1,623.93,1192.41,614.67,1184.33,606.28Z"/><path d="M714.14,14.7c1.77.14,5-2.5,5.41-4.36.67-3.26-.36-6.87-.68-10.34h-12c.29,3.43-.14,7.15,1.09,10.19A8.68,8.68,0,0,0,714.14,14.7Z"/><path d="M129.72,729c-6.74-3.24-13-2.68-18.93,2-9.81,7.73-12.47,24.61-5.56,35.57,7.31,11.62,19,12.2,27.36,1.46,4.81-6.2,6.32-13.3,6.24-20.91,0-.83,0-1.66,0-2.49C139.05,737.54,136.3,732.2,129.72,729Z"/><path d="M76.86,712.35c-4.59-1.24-7.4,1.56-9.31,4.93-2.27,4-4.78,7-9.59,8.25-4.28,1.14-7.23,7.13-6,12.41.69,3,3,6.67,5.65,7.83,4.81,2.15,7.51-2.13,10.33-5.51a9.72,9.72,0,0,1,5.67-3.19c6.6-.87,11.56-5.91,11.52-12.41C85.1,718.78,81.69,713.65,76.86,712.35Z"/><path d="M29.7,749.42c-1.95,3.07-2.82,6.83-4.07,10,1,3.77,1.35,6.94,2.56,9.75,3.73,8.6,12.87,9.62,18.22,1.92a19.28,19.28,0,0,0,1.24-21C43.55,742.35,34.41,742,29.7,749.42Z"/><path d="M1028.6,29.16c1.31-1.94,1.81-4.42,3.08-7.71-1.58-2.63-2.71-6.06-5.07-7.9-1.42-1.09-5.33-.5-7.13.76-4.08,2.85-4.19,11.38-.78,15.25C1021.86,33.15,1025.94,33.13,1028.6,29.16Z"/><path d="M912.54,35c4.29-.25,5.11-3.51,5.52-6.74.09-4-2.84-8.28-5.63-7.89-3.92.55-5.16,3.9-5.59,7.17C906.34,31.29,909.48,35.17,912.54,35Z"/><path d="M328.43,789.34c-.22,1.3,1.7,3,2.66,4.47h1.75c.78-1.74,2.26-3.54,2.12-5.21s-2-2.92-3.11-4.38C330.64,785.92,328.75,787.49,328.43,789.34Z"/><path d="M6.06,241.36c.74-1.53,2.23-3.18,2-4.55s-2.09-2.69-3.24-4c-1,1.29-2.86,2.54-2.94,3.89-.08,1.5,1.41,3.09,2.21,4.65Z"/><path d="M764.8,772l4.05,4c1-1.23,2.74-2.44,2.76-3.69s-1.6-2.64-2.5-4Z"/><path d="M1041.92,11.12l-4.07-3.3c-.74,1-2,2.07-2.06,3.12s1.23,2.16,1.92,3.24Z"/></g></g></svg>