<?xml version="1.0" standalone="no"?>
<!DOCTYPE svg PUBLIC "-//W3C//DTD SVG 20010904//EN"
 "http://www.w3.org/TR/2001/REC-SVG-20010904/DTD/svg10.dtd">
<svg version="1.0" xmlns="http://www.w3.org/2000/svg"
 width="830.000000pt" height="830.000000pt" viewBox="0 0 830.000000 830.000000"
 preserveAspectRatio="xMidYMid meet">
<metadata>
Created by potrace 1.14, written by Peter Selinger 2001-2017
</metadata>
<g transform="translate(0.000000,830.000000) scale(0.100000,-0.100000)"
fill="#000000" stroke="none">
<path d="M4265 8291 c-88 -23 -157 -80 -191 -158 -22 -50 -26 -72 -26 -168 0
-60 2 -132 6 -160 15 -128 19 -151 22 -170 3 -11 7 -36 10 -55 2 -19 9 -57 14
-85 5 -27 11 -61 14 -75 2 -14 7 -45 11 -70 13 -77 16 -112 17 -206 3 -171
-50 -244 -173 -239 -80 3 -131 35 -185 115 -50 75 -91 180 -124 315 -6 28 -15
57 -18 65 -3 8 -7 25 -8 36 -1 12 -8 41 -14 65 -7 24 -13 51 -15 59 -3 13 -18
76 -41 175 -3 11 -7 29 -9 40 -10 58 -66 230 -86 262 -50 81 -125 124 -225
129 -101 5 -180 -24 -257 -95 -78 -70 -96 -193 -48 -316 5 -11 19 -47 31 -80
40 -103 122 -275 239 -500 72 -139 173 -331 195 -370 9 -16 16 -35 16 -42 0
-6 4 -13 9 -15 19 -7 330 -657 346 -723 2 -12 14 -42 25 -70 5 -11 16 -47 25
-80 66 -236 45 -351 -73 -402 -34 -14 -108 -12 -154 6 -65 24 -156 138 -231
286 -45 91 -150 362 -161 420 -1 6 -19 62 -38 125 -45 143 -88 287 -94 319 -3
14 -7 28 -10 33 -3 4 -7 16 -9 25 -1 10 -15 61 -30 113 -15 52 -30 109 -35
125 -59 217 -176 575 -193 591 -4 4 -7 13 -7 20 0 8 -22 60 -49 116 -77 161
-155 220 -283 213 -78 -4 -82 -5 -138 -33 -79 -39 -136 -104 -163 -183 -16
-48 -15 -143 2 -163 5 -6 10 -15 11 -21 2 -19 103 -220 111 -223 5 -2 9 -9 9
-16 0 -7 11 -29 24 -49 13 -19 22 -38 18 -41 -3 -3 0 -6 6 -6 7 0 12 -5 12
-10 0 -6 22 -47 50 -91 28 -44 50 -82 50 -84 0 -2 23 -40 50 -85 28 -45 50
-84 50 -87 0 -3 8 -17 19 -31 19 -29 83 -146 131 -239 55 -110 81 -178 92
-243 10 -57 9 -70 -6 -102 -21 -43 -82 -78 -151 -86 -92 -10 -213 80 -320 239
-27 41 -53 76 -57 77 -5 2 -8 7 -8 12 0 4 -27 54 -60 109 -33 56 -60 106 -60
111 0 6 -4 10 -9 10 -5 0 -11 8 -14 18 -3 9 -20 40 -36 67 -17 28 -38 64 -47
80 -20 36 -145 226 -159 241 -5 6 -32 36 -59 68 -28 31 -56 56 -63 56 -7 0
-13 4 -13 8 0 17 -78 44 -136 47 -81 4 -150 -23 -219 -87 -30 -27 -55 -56 -55
-64 0 -8 -4 -14 -8 -14 -15 0 -39 -86 -40 -144 0 -90 34 -156 127 -240 25 -23
52 -48 61 -57 10 -9 64 -54 121 -100 57 -46 110 -89 117 -96 7 -7 17 -13 20
-13 4 0 18 -10 32 -22 14 -13 52 -43 85 -68 33 -25 62 -47 65 -50 3 -3 28 -23
55 -45 28 -22 61 -49 75 -60 14 -11 68 -63 120 -115 138 -138 171 -214 132
-302 -40 -87 -115 -136 -192 -125 -34 4 -101 31 -125 49 -5 4 -32 24 -59 44
-68 50 -54 38 -264 244 -223 219 -331 320 -342 320 -4 0 -14 7 -21 16 -20 24
-142 102 -197 125 -131 57 -276 1 -358 -138 -33 -54 -37 -74 -38 -163 -1 -166
83 -239 397 -346 136 -47 198 -79 225 -118 21 -31 27 -80 11 -101 -4 -5 -8
-13 -8 -18 -2 -27 -37 -71 -66 -83 -49 -20 -81 -11 -270 81 -238 116 -309 135
-407 110 -125 -33 -214 -160 -215 -305 -1 -141 102 -262 242 -284 22 -3 54 -8
70 -11 117 -18 214 -24 485 -30 649 -14 836 -23 975 -51 17 -3 41 -7 55 -9 14
-2 26 -4 28 -6 2 -2 3 -2 52 -13 32 -8 73 -23 127 -48 109 -52 152 -161 100
-258 -51 -96 -178 -152 -354 -154 -24 -1 -43 -5 -43 -9 0 -5 -5 -5 -10 -2 -6
3 -67 8 -138 11 -70 2 -145 6 -167 8 -55 6 -133 15 -175 21 -19 3 -55 8 -80
11 -25 3 -83 12 -128 19 -46 8 -87 14 -90 13 -4 0 -9 0 -12 2 -3 1 -14 3 -25
5 -37 6 -120 19 -135 21 -8 1 -28 4 -45 8 -38 7 -215 34 -275 42 -96 12 -118
14 -200 19 -47 2 -87 5 -90 6 -3 1 -9 1 -13 0 -4 -1 -35 -3 -67 -6 -65 -4
-128 -35 -178 -86 -26 -27 -83 -127 -88 -154 -1 -5 -7 -30 -12 -54 -11 -46
-10 -177 1 -221 22 -86 78 -160 145 -194 42 -21 58 -23 162 -21 63 2 129 5
145 8 17 3 57 8 90 12 32 4 67 8 76 10 14 3 88 13 139 20 8 1 35 5 60 9 25 4
59 10 75 12 17 3 37 6 45 9 8 2 42 6 75 10 33 3 67 8 75 10 8 2 46 6 83 10 37
3 78 9 90 11 54 12 366 11 435 -1 84 -15 176 -56 210 -94 53 -58 75 -145 52
-205 -14 -38 -69 -85 -135 -116 -56 -26 -192 -69 -240 -75 -11 -2 -51 -8 -90
-15 -38 -6 -86 -13 -105 -15 -19 -3 -51 -7 -70 -9 -60 -9 -112 -15 -185 -21
-38 -3 -83 -8 -100 -10 -16 -2 -61 -7 -100 -11 -38 -3 -81 -8 -95 -9 -14 -2
-54 -6 -90 -10 -118 -12 -235 -30 -235 -35 0 -1 -12 -3 -26 -5 -128 -17 -218
-75 -264 -170 -28 -59 -26 -176 5 -241 69 -143 199 -208 356 -180 66 12 104
30 354 163 165 89 272 115 339 83 48 -24 97 -79 107 -121 31 -135 -70 -228
-521 -483 -49 -28 -110 -70 -113 -77 -2 -5 -9 -9 -14 -9 -17 0 -76 -71 -100
-120 -51 -104 -18 -264 73 -352 83 -81 207 -101 309 -50 76 39 271 202 480
402 156 149 303 284 367 337 106 88 130 106 182 136 80 47 95 53 163 65 40 7
54 5 85 -12 47 -26 83 -88 83 -141 0 -79 -88 -196 -225 -300 -15 -11 -32 -25
-38 -31 -7 -6 -17 -13 -22 -15 -6 -2 -55 -34 -110 -71 -55 -36 -181 -116 -280
-177 -99 -60 -184 -114 -190 -118 -5 -5 -41 -28 -80 -53 -38 -25 -74 -48 -80
-53 -5 -4 -43 -32 -83 -62 -41 -29 -89 -70 -108 -89 -41 -43 -84 -129 -86
-177 -8 -143 121 -264 292 -275 59 -4 161 9 185 24 6 4 15 7 21 8 73 11 266
200 374 365 39 59 120 146 155 166 21 12 52 21 69 21 90 -3 218 -151 229 -265
2 -24 1 -45 -2 -49 -3 -3 -6 -9 -6 -12 -3 -32 -18 -82 -25 -82 -6 0 -10 -6
-10 -13 0 -21 -29 -55 -128 -151 -295 -286 -311 -307 -320 -413 -6 -71 18
-131 72 -186 68 -68 156 -104 246 -102 120 3 191 45 270 160 19 28 38 51 43
53 4 2 7 7 7 11 0 4 27 56 60 115 33 59 60 109 60 111 0 2 15 36 33 77 31 67
80 186 83 198 0 3 6 18 12 33 7 16 12 34 12 41 0 6 4 16 9 22 4 5 16 34 25 64
9 30 20 62 23 70 7 18 6 15 21 65 6 22 12 45 13 50 0 6 5 18 11 28 5 10 11 26
13 35 2 9 29 98 60 197 31 99 58 190 61 203 2 13 11 40 18 60 8 20 26 71 41
112 38 108 109 267 124 280 3 3 13 18 21 34 22 43 114 132 157 153 36 17 161
25 204 12 87 -26 124 -134 93 -270 -7 -31 -15 -68 -18 -82 -9 -51 -99 -263
-182 -432 -87 -175 -108 -215 -259 -495 -92 -171 -261 -494 -271 -520 -3 -8
-15 -35 -27 -60 -120 -265 -155 -440 -110 -552 9 -24 23 -49 30 -56 7 -7 16
-19 20 -25 25 -40 106 -72 172 -68 104 6 207 116 236 251 23 107 40 202 51
285 7 53 8 60 25 145 19 99 50 169 99 222 68 75 292 62 345 -19 27 -41 13
-136 -35 -238 -123 -264 -165 -497 -112 -618 18 -41 56 -85 104 -122 46 -35
226 -58 257 -32 8 7 16 10 18 8 2 -1 18 3 36 10 34 13 143 117 133 126 -3 4
-1 12 5 19 38 47 25 354 -27 604 -3 14 -7 36 -9 50 -4 30 -14 95 -21 130 -17
93 -22 254 -10 305 2 11 5 25 5 31 2 20 56 77 87 90 57 24 149 7 205 -38 60
-49 134 -201 174 -362 33 -129 44 -175 49 -197 4 -23 42 -187 50 -219 3 -8 9
-35 15 -60 18 -77 58 -206 74 -236 27 -50 87 -102 142 -123 157 -59 372 34
413 179 14 47 8 148 -10 195 -11 28 -24 62 -28 77 -12 41 -128 276 -140 283
-6 3 -8 11 -5 16 4 5 1 9 -4 9 -6 0 -11 4 -11 9 0 8 -97 178 -148 260 -13 20
-25 44 -29 54 -3 9 -9 17 -14 17 -5 0 -9 4 -9 8 0 5 -31 60 -68 123 -38 63
-85 143 -104 179 -19 36 -41 76 -49 90 -7 14 -14 27 -15 30 0 3 -11 28 -24 55
-13 28 -25 52 -25 55 -1 3 -5 14 -9 25 -15 38 -19 50 -22 60 -37 146 -17 235
65 286 182 116 327 30 441 -261 12 -30 23 -59 24 -65 3 -12 25 -84 33 -105 3
-8 7 -19 9 -25 1 -5 13 -53 27 -105 39 -145 119 -453 122 -470 2 -8 8 -27 13
-41 6 -15 8 -30 5 -33 -4 -3 -2 -6 3 -6 5 0 10 -8 11 -19 1 -16 12 -50 68
-211 35 -101 119 -268 153 -305 54 -58 108 -80 197 -80 69 0 88 4 138 29 135
68 203 193 175 319 -10 44 -106 250 -120 255 -4 2 -8 10 -8 19 0 8 -8 27 -19
41 -10 15 -31 50 -45 77 -15 28 -35 62 -44 77 -9 14 -44 72 -77 129 -33 56
-70 118 -82 138 -12 20 -28 47 -36 61 -7 14 -24 43 -37 65 -44 75 -140 273
-140 287 0 8 -4 18 -9 23 -12 14 -31 98 -31 139 0 70 86 134 175 131 91 -3
111 -14 206 -108 64 -63 148 -186 249 -362 302 -527 411 -657 559 -670 213
-17 393 201 325 397 -15 42 -37 71 -109 143 -49 50 -112 108 -140 129 -27 22
-56 46 -62 55 -7 8 -13 12 -13 7 0 -4 -11 3 -25 16 -30 28 -43 39 -76 60 -14
9 -32 23 -40 30 -8 7 -54 45 -104 83 -49 38 -95 74 -101 80 -7 5 -31 26 -55
45 -54 44 -148 129 -168 153 -9 11 -28 33 -44 50 -44 51 -79 134 -74 176 10
93 106 184 189 180 104 -6 210 -82 471 -342 264 -262 330 -321 432 -389 90
-59 122 -75 170 -84 171 -34 335 100 352 286 12 128 -42 214 -181 287 -52 28
-209 91 -241 97 -29 6 -115 42 -153 65 -71 44 -85 104 -45 189 28 58 82 80
148 59 17 -5 102 -45 190 -88 88 -44 170 -81 183 -84 12 -2 26 -6 31 -9 11 -7
80 -19 101 -18 95 5 163 62 194 164 17 57 13 231 -6 263 -3 6 -9 25 -13 42 -3
18 -10 33 -15 33 -4 0 -10 10 -14 23 -3 12 -26 46 -51 74 -50 57 -140 107
-210 117 -22 3 -51 8 -65 11 -30 7 -288 7 -345 0 -22 -2 -67 -7 -100 -10 -33
-3 -76 -8 -95 -10 -383 -43 -528 -17 -555 99 -10 40 -10 41 -1 107 5 32 21 79
37 108 79 138 246 161 599 81 25 -5 56 -12 70 -14 14 -3 34 -7 45 -10 57 -14
278 -56 330 -62 33 -4 103 -7 155 -6 118 0 171 19 242 87 27 27 83 114 93 145
4 14 11 30 15 35 4 6 11 24 14 40 3 17 9 41 12 55 3 14 8 66 9 115 7 168 -48
288 -153 332 -31 13 -191 20 -210 10 -4 -3 -32 -7 -62 -11 -60 -7 -163 -29
-250 -54 -30 -9 -57 -16 -60 -17 -3 -1 -55 -13 -116 -28 -92 -22 -196 -39
-249 -39 -25 0 -80 14 -106 27 -48 25 -79 67 -100 135 -33 107 -16 203 44 253
39 31 119 63 182 72 11 2 34 6 50 8 47 9 142 18 235 23 218 12 361 27 460 48
14 3 34 8 45 10 51 10 133 57 167 94 143 158 40 442 -177 488 -59 12 -143 6
-195 -14 -47 -18 -125 -56 -172 -84 -27 -15 -48 -24 -48 -20 0 4 -4 2 -8 -3
-23 -33 -262 -135 -327 -139 -41 -2 -104 20 -133 47 -105 97 -47 225 164 363
32 21 61 42 64 45 3 4 28 19 55 33 82 44 201 119 245 155 123 99 180 343 112
489 -41 90 -117 136 -212 128 -72 -6 -124 -30 -215 -99 -73 -55 -350 -327
-520 -512 -178 -193 -326 -347 -397 -412 -25 -23 -43 -44 -40 -47 3 -3 0 -6
-6 -6 -7 0 -20 -8 -31 -17 -121 -114 -231 -181 -310 -189 -97 -9 -150 92 -111
211 37 113 225 321 461 510 41 32 79 64 85 70 27 24 156 123 404 308 96 73
177 134 180 137 3 3 38 30 78 60 39 30 72 58 72 62 0 5 5 8 11 8 17 0 100 83
125 127 30 50 36 73 35 142 -2 189 -264 308 -480 219 -14 -6 -29 -12 -33 -12
-4 -1 -36 -20 -71 -43 -72 -47 -142 -120 -229 -238 -21 -27 -41 -54 -45 -60
-5 -5 -28 -37 -53 -71 -53 -73 -116 -123 -164 -131 -64 -10 -166 70 -218 172
-31 59 -32 140 -4 202 13 28 32 61 42 74 19 24 145 149 264 262 70 67 123 145
139 203 17 62 16 127 -2 164 -10 18 -17 38 -17 44 0 23 -87 100 -140 125 -46
22 -69 26 -140 26 -76 0 -91 -4 -134 -29 -83 -49 -125 -101 -256 -316 -59 -97
-205 -372 -201 -378 1 -1 -5 -15 -13 -30 -7 -15 -30 -67 -51 -117 -20 -49 -43
-103 -50 -120 -13 -29 -27 -65 -30 -75 -1 -3 -8 -21 -17 -40 -8 -19 -26 -60
-39 -90 -89 -207 -167 -253 -284 -163 -25 19 -52 51 -61 71 -21 50 -12 145 21
217 14 31 25 60 25 65 0 6 5 10 10 10 6 0 10 5 10 10 0 6 30 56 68 111 37 56
72 108 77 117 6 9 15 21 20 28 35 41 238 330 269 382 17 30 41 70 54 90 20 33
43 79 47 92 0 3 6 14 12 25 12 22 41 109 49 146 37 174 -95 333 -287 344 -127
8 -233 -51 -278 -155 -26 -61 -54 -180 -66 -285 -16 -140 -57 -323 -83 -369
-25 -45 -68 -85 -110 -103 -72 -30 -224 -11 -271 35 -19 18 -35 51 -32 65 1 4
3 28 6 53 2 24 9 53 15 64 6 11 8 20 4 20 -3 0 0 7 7 16 7 9 14 21 15 28 1 7
11 32 21 56 11 25 28 68 38 95 10 28 22 55 27 61 4 6 9 19 11 30 2 10 9 37 15
59 19 67 24 107 27 184 3 135 -51 230 -160 280 -53 25 -167 36 -220 22z"/>
</g>
</svg>
